<svg width="2413" height="465" viewBox="0 0 2413 465" fill="none" xmlns="http://www.w3.org/2000/svg">
<path d="M379.29 117.054L201.22 14.8217C200.65 14.4993 200.07 14.1871 199.48 13.905C146.35 -11.6808 82.4603 -1.3256 40.5503 39.7628C-12.5897 91.8713 -13.6297 176.023 38.1903 229.38L41.9103 233.218C82.8903 275.414 146.72 287.22 200.52 262.702C201.3 262.35 202.06 261.947 202.8 261.514L379.41 158.536C395.27 149.288 395.2 126.191 379.27 117.044L379.29 117.054ZM162.79 184.474C142.14 193.711 117.51 189.44 101.74 173.877L100.32 172.477C80.5203 152.945 80.9203 122.141 101.22 103.063C117.32 87.9328 141.92 84.1855 162.28 93.755L244.37 138.903L162.79 184.474Z" fill="white"/>
<path d="M116.971 212.204L295.041 110.714C295.611 110.394 296.191 110.084 296.781 109.804C349.911 84.404 413.801 94.684 455.711 135.474C508.851 187.204 509.891 270.744 458.071 323.714L454.351 327.524C413.371 369.414 349.541 381.134 295.741 356.794C294.961 356.444 294.201 356.044 293.461 355.614L116.851 253.384C100.991 244.204 101.061 221.274 116.991 212.194L116.971 212.204ZM333.471 279.134C354.121 288.304 378.751 284.064 394.521 268.614L395.941 267.224C415.741 247.834 415.341 217.254 395.041 198.314C378.941 183.294 354.341 179.574 333.981 189.074L251.891 233.894L333.471 279.134Z" fill="white"/>
<path d="M379.29 307.204L201.22 205.714C200.65 205.394 200.07 205.084 199.48 204.804C146.35 179.404 82.4603 189.684 40.5503 230.474C-12.5897 282.204 -13.6297 365.744 38.1903 418.714L41.9103 422.524C82.8903 464.414 146.72 476.134 200.52 451.794C201.3 451.444 202.06 451.044 202.8 450.614L379.41 348.384C395.27 339.204 395.2 316.274 379.27 307.194L379.29 307.204ZM162.79 374.134C142.14 383.304 117.51 379.064 101.74 363.614L100.32 362.224C80.5203 342.834 80.9203 312.254 101.22 293.314C117.32 278.294 141.92 274.574 162.28 284.074L244.37 328.894L162.79 374.134Z" fill="white"/>
<path d="M859.026 265.031C844.705 308.655 803.58 340.117 755.294 340.117C695.175 340.117 646.262 291.192 646.262 231.059C646.262 170.925 695.175 122 755.294 122C803.58 122 844.38 153.16 858.723 196.48H806.695C797.977 177.481 776.798 165.623 755.294 165.623C721.027 165.623 693.617 195.225 693.617 231.059C693.617 266.892 721.027 296.494 755.294 296.494C777.1 296.494 798.28 283.727 806.998 265.031H859.026Z" fill="white"/>
<path d="M1018.83 340.139C960.27 340.139 909.8 289.656 909.8 231.08C909.8 172.504 960.27 122.021 1018.83 122.021C1077.39 122.021 1127.86 172.504 1127.86 231.08C1127.86 289.656 1077.39 340.139 1018.83 340.139ZM1018.83 168.458C986.122 168.458 956.528 198.06 956.528 230.777C956.528 263.495 986.122 293.399 1018.83 293.399C1051.54 293.399 1081.14 263.495 1081.14 230.777C1081.14 198.06 1051.54 168.458 1018.83 168.458Z" fill="white"/>
<path d="M1189.54 125.138H1236.27V294.633H1312.29V337.002H1189.54V125.116V125.138Z" fill="white"/>
<path d="M1373.97 125.138H1420.69V294.633H1496.71V337.002H1373.97V125.116V125.138Z" fill="white"/>
<path d="M1702.62 337.023L1687.35 294.33H1606.65L1591.38 337.023H1541.24L1627.21 125.138H1666.77L1752.75 337.023H1702.6H1702.62ZM1646.85 180.597L1620.07 256.008H1673.65L1646.87 180.597H1646.85Z" fill="white"/>
<path d="M1890.77 337.023H1805.1V125.138H1878C1914.13 125.138 1937.19 149.135 1937.19 178.109C1937.19 199.618 1927.85 215.804 1911.97 222.988C1935.63 228.592 1954.95 247.612 1954.95 276.262C1954.95 312.723 1931.29 337.023 1890.79 337.023H1890.77ZM1868.03 161.902H1851.83V211.13H1868.03C1881.42 211.13 1892.65 199.921 1892.65 186.505C1892.65 173.089 1881.44 161.88 1868.03 161.88V161.902ZM1881.42 249.452H1851.83V300.562H1881.42C1895.44 300.562 1907.27 289.029 1907.27 275.007C1907.27 260.985 1895.44 249.452 1881.42 249.452Z" fill="white"/>
<path d="M2179.25 125.138V254.45C2179.25 310.84 2146.84 340.139 2091.72 340.139C2036.6 340.139 2004.19 310.84 2004.19 254.45V125.138H2050.92V247.591C2050.92 276.889 2059.96 293.4 2091.72 293.4C2123.48 293.4 2132.52 276.889 2132.52 247.591V125.138H2179.25Z" fill="white"/>
<path d="M2363.98 279.053C2363.98 237.918 2241.55 264.404 2241.55 186.202C2241.55 142.578 2282.05 122.021 2320.69 122.021C2364.3 122.021 2403.54 141.345 2405.1 189.642H2359.93C2357.44 167.528 2344.66 160.343 2321.29 160.343C2308.2 160.343 2289.84 166.575 2289.84 182.458C2289.84 220.153 2412.26 193.061 2412.26 273.752C2412.26 323.607 2367.72 342 2324.41 342C2277.68 342 2235 318.933 2234.69 267.217H2282.05C2283.3 292.447 2303.23 303.981 2326.29 303.981C2340.94 303.981 2363.98 298.052 2363.98 279.053Z" fill="white"/>
</svg>
